<svg version="1.1" baseProfile="full" xmlns="http://www.w3.org/2000/svg">

<line x1="350" y1="50" x2="350" y2="750" style="stroke:rgb(99,99,99);stroke-width:2"/>
<line x1="450" y1="50" x2="450" y2="785" style="stroke:rgb(99,99,99);stroke-width:2"/>
<line x1="350" y1="50" x2="450" y2="50" style="stroke:rgb(99,99,99);stroke-width:0.3"/><line x1="345" y1="50" x2="355" y2="50" style="stroke:rgb(99,99,99);stroke-width:2"/><text x="100" y="50"  font-size="13" text-anchor="left" >
              Bruxelles , le 15 juillet 2004...
            </text><line x1="445" y1="50" x2="455" y2="50" style="stroke:rgb(99,99,99);stroke-width:2"/><text x="470" y="50"  font-size="13" text-anchor="left" >
              Βρυξέλλες , 15 Ιουλίου 2004...
            </text><line x1="350" y1="85" x2="450" y2="85" style="stroke:rgb(99,99,99);stroke-width:0.3"/><line x1="345" y1="85" x2="355" y2="85" style="stroke:rgb(99,99,99);stroke-width:2"/><text x="100" y="85"  font-size="13" text-anchor="left" >
              De nouveaux financements pour les réseau...
            </text><line x1="445" y1="85" x2="455" y2="85" style="stroke:rgb(99,99,99);stroke-width:2"/><text x="470" y="85"  font-size="13" text-anchor="left" >
              Νέοι χρηματοδοτικοί πόροι για τα διευρωπ...
            </text><line x1="350" y1="120" x2="450" y2="120" style="stroke:rgb(99,99,99);stroke-width:0.3"/><line x1="350" y1="120" x2="450" y2="155" style="stroke:rgb(99,99,99);stroke-width:0.3"/><line x1="345" y1="120" x2="355" y2="120" style="stroke:rgb(99,99,99);stroke-width:2"/><text x="100" y="120"  font-size="13" text-anchor="left" >
              La Commission propose plus de 22 milliar...
            </text><line x1="445" y1="120" x2="455" y2="120" style="stroke:rgb(99,99,99);stroke-width:2"/><text x="470" y="120"  font-size="13" text-anchor="left" >
              Η Επιτροπή προτείνει να διατεθεί επί χρο...
            </text><line x1="445" y1="155" x2="455" y2="155" style="stroke:rgb(99,99,99);stroke-width:2"/><text x="470" y="155"  font-size="13" text-anchor="left" >
              ευρώ για τα διευρωπαϊκά δίκτυα μεταφορών...
            </text><line x1="350" y1="155" x2="450" y2="190" style="stroke:rgb(99,99,99);stroke-width:0.3"/><line x1="345" y1="155" x2="355" y2="155" style="stroke:rgb(99,99,99);stroke-width:2"/><text x="100" y="155"  font-size="13" text-anchor="left" >
              " Il est grand temps aujourd’hui de dote...
            </text><line x1="445" y1="190" x2="455" y2="190" style="stroke:rgb(99,99,99);stroke-width:2"/><text x="470" y="190"  font-size="13" text-anchor="left" >
              Όπως τόνισε η κα de Palacio " horaireσήμ...
            </text><line x1="350" y1="190" x2="450" y2="225" style="stroke:rgb(99,99,99);stroke-width:0.3"/><line x1="345" y1="190" x2="355" y2="190" style="stroke:rgb(99,99,99);stroke-width:2"/><text x="100" y="190"  font-size="13" text-anchor="left" >
              Dans le cadre des prochaines perspective...
            </text><line x1="445" y1="225" x2="455" y2="225" style="stroke:rgb(99,99,99);stroke-width:2"/><text x="470" y="225"  font-size="13" text-anchor="left" >
              Στο πλαίσιο των δημοσιονομικών προοπτικώ...
            </text><line x1="350" y1="225" x2="450" y2="260" style="stroke:rgb(99,99,99);stroke-width:0.3"/><line x1="350" y1="225" x2="450" y2="295" style="stroke:rgb(99,99,99);stroke-width:0.3"/><line x1="345" y1="225" x2="355" y2="225" style="stroke:rgb(99,99,99);stroke-width:2"/><text x="100" y="225"  font-size="13" text-anchor="left" >
              Dans les transports , le règlement propo...
            </text><line x1="445" y1="260" x2="455" y2="260" style="stroke:rgb(99,99,99);stroke-width:2"/><text x="470" y="260"  font-size="13" text-anchor="left" >
              Σύμφωνα με την πρόταση κανονισμού , για ...
            </text><line x1="445" y1="295" x2="455" y2="295" style="stroke:rgb(99,99,99);stroke-width:2"/><text x="470" y="295"  font-size="13" text-anchor="left" >
              € , οι ενισχύσεις εστιάζονται σε περιορι...
            </text><line x1="350" y1="260" x2="450" y2="330" style="stroke:rgb(99,99,99);stroke-width:0.3"/><line x1="350" y1="295" x2="450" y2="330" style="stroke:rgb(99,99,99);stroke-width:0.3"/><line x1="345" y1="260" x2="355" y2="260" style="stroke:rgb(99,99,99);stroke-width:2"/><text x="100" y="260"  font-size="13" text-anchor="left" >
              Les aides seront conditionnées au respec...
            </text><line x1="345" y1="295" x2="355" y2="295" style="stroke:rgb(99,99,99);stroke-width:2"/><text x="100" y="295"  font-size="13" text-anchor="left" >
              Le rôle respectif de la Commission et de...
            </text><line x1="445" y1="330" x2="455" y2="330" style="stroke:rgb(99,99,99);stroke-width:2"/><text x="470" y="330"  font-size="13" text-anchor="left" >
              Οι ενισχύσεις χορηγούνται υπό τον όρο ότ...
            </text><line x1="350" y1="330" x2="450" y2="365" style="stroke:rgb(99,99,99);stroke-width:0.3"/><line x1="350" y1="330" x2="450" y2="400" style="stroke:rgb(99,99,99);stroke-width:0.3"/><line x1="350" y1="365" x2="450" y2="365" style="stroke:rgb(99,99,99);stroke-width:0.3"/><line x1="350" y1="365" x2="450" y2="400" style="stroke:rgb(99,99,99);stroke-width:0.3"/><line x1="345" y1="330" x2="355" y2="330" style="stroke:rgb(99,99,99);stroke-width:2"/><text x="100" y="330"  font-size="13" text-anchor="left" >
              Ce budget , en très forte augmentation p...
            </text><line x1="345" y1="365" x2="355" y2="365" style="stroke:rgb(99,99,99);stroke-width:2"/><text x="100" y="365"  font-size="13" text-anchor="left" >
              Compte tenu du doublement prévu du trafi...
            </text><line x1="445" y1="365" x2="455" y2="365" style="stroke:rgb(99,99,99);stroke-width:2"/><text x="470" y="365"  font-size="13" text-anchor="left" >
              Με τον προϋπολογισμό αυτό , ο οποίος αυξ...
            </text><line x1="445" y1="400" x2="455" y2="400" style="stroke:rgb(99,99,99);stroke-width:2"/><text x="470" y="400"  font-size="13" text-anchor="left" >
              € ) , ενώ επιτρέπεται επίσης η συγχρηματ...
            </text><line x1="350" y1="400" x2="450" y2="435" style="stroke:rgb(99,99,99);stroke-width:0.3"/><line x1="345" y1="400" x2="355" y2="400" style="stroke:rgb(99,99,99);stroke-width:2"/><text x="100" y="400"  font-size="13" text-anchor="left" >
              Dans l’énergie , le règlement prévoit un...
            </text><line x1="445" y1="435" x2="455" y2="435" style="stroke:rgb(99,99,99);stroke-width:2"/><text x="470" y="435"  font-size="13" text-anchor="left" >
              Σύμφωνα με τα στοιχεία του κανονισμού , ...
            </text><line x1="350" y1="435" x2="450" y2="470" style="stroke:rgb(99,99,99);stroke-width:0.3"/><line x1="345" y1="435" x2="355" y2="435" style="stroke:rgb(99,99,99);stroke-width:2"/><text x="100" y="435"  font-size="13" text-anchor="left" >
              La Commission a présenté deux autres règ...
            </text><line x1="445" y1="470" x2="455" y2="470" style="stroke:rgb(99,99,99);stroke-width:2"/><text x="470" y="470"  font-size="13" text-anchor="left" >
              Η Επιτροπή υπέβαλε επίσης δύο άλλους συμ...
            </text><line x1="350" y1="470" x2="450" y2="505" style="stroke:rgb(99,99,99);stroke-width:0.3"/><line x1="345" y1="470" x2="355" y2="470" style="stroke:rgb(99,99,99);stroke-width:2"/><text x="100" y="470"  font-size="13" text-anchor="left" >
              Pour développer le programme existant " ...
            </text><line x1="445" y1="505" x2="455" y2="505" style="stroke:rgb(99,99,99);stroke-width:2"/><text x="470" y="505"  font-size="13" text-anchor="left" >
              Με στόχο την ανάπτυξη του υφιστάμενου πρ...
            </text><line x1="350" y1="505" x2="450" y2="540" style="stroke:rgb(99,99,99);stroke-width:0.3"/><line x1="350" y1="505" x2="450" y2="575" style="stroke:rgb(99,99,99);stroke-width:0.3"/><line x1="345" y1="505" x2="355" y2="505" style="stroke:rgb(99,99,99);stroke-width:2"/><text x="100" y="505"  font-size="13" text-anchor="left" >
              Marco Polo II comporte de nouvelles acti...
            </text><line x1="445" y1="540" x2="455" y2="540" style="stroke:rgb(99,99,99);stroke-width:2"/><text x="470" y="540"  font-size="13" text-anchor="left" >
              Στο πρόγραμμα Marco Polo II εντάσσονται ...
            </text><line x1="445" y1="575" x2="455" y2="575" style="stroke:rgb(99,99,99);stroke-width:2"/><text x="470" y="575"  font-size="13" text-anchor="left" >
              Το πρόγραμμα αυτό για το οποίο θα διατεθ...
            </text><line x1="350" y1="540" x2="450" y2="610" style="stroke:rgb(99,99,99);stroke-width:0.3"/><line x1="350" y1="575" x2="450" y2="610" style="stroke:rgb(99,99,99);stroke-width:0.3"/><line x1="345" y1="540" x2="355" y2="540" style="stroke:rgb(99,99,99);stroke-width:2"/><text x="100" y="540"  font-size="13" text-anchor="left" >
              Le programme , doté de 740 millions € po...
            </text><line x1="345" y1="575" x2="355" y2="575" style="stroke:rgb(99,99,99);stroke-width:2"/><text x="100" y="575"  font-size="13" text-anchor="left" >
              La Commission estime qu’1 € de subventio...
            </text><line x1="445" y1="610" x2="455" y2="610" style="stroke:rgb(99,99,99);stroke-width:2"/><text x="470" y="610"  font-size="13" text-anchor="left" >
              € για το χρονικό διάστημα 2007-2013 επεκ...
            </text><line x1="350" y1="610" x2="450" y2="645" style="stroke:rgb(99,99,99);stroke-width:0.3"/><line x1="345" y1="610" x2="355" y2="610" style="stroke:rgb(99,99,99);stroke-width:2"/><text x="100" y="610"  font-size="13" text-anchor="left" >
              Pour contribuer financièrement aux phase...
            </text><line x1="445" y1="645" x2="455" y2="645" style="stroke:rgb(99,99,99);stroke-width:2"/><text x="470" y="645"  font-size="13" text-anchor="left" >
              Με στόχο την οικονομική υποστήριξη των φ...
            </text><line x1="350" y1="645" x2="450" y2="680" style="stroke:rgb(99,99,99);stroke-width:0.3"/><line x1="345" y1="645" x2="355" y2="645" style="stroke:rgb(99,99,99);stroke-width:2"/><text x="100" y="645"  font-size="13" text-anchor="left" >
              A terme , les revenus commerciaux généré...
            </text><line x1="445" y1="680" x2="455" y2="680" style="stroke:rgb(99,99,99);stroke-width:2"/><text x="470" y="680"  font-size="13" text-anchor="left" >
              €. Μακροπρόθεσμα , τα εμπορικά έσοδα που...
            </text><line x1="350" y1="680" x2="450" y2="715" style="stroke:rgb(99,99,99);stroke-width:0.3"/><line x1="345" y1="680" x2="355" y2="680" style="stroke:rgb(99,99,99);stroke-width:2"/><text x="100" y="680"  font-size="13" text-anchor="left" >
              .SB .EOS...
            </text><line x1="445" y1="715" x2="455" y2="715" style="stroke:rgb(99,99,99);stroke-width:2"/><text x="470" y="715"  font-size="13" text-anchor="left" >
              .SB .EOS...
            </text><line x1="350" y1="715" x2="450" y2="750" style="stroke:rgb(99,99,99);stroke-width:0.3"/><line x1="345" y1="715" x2="355" y2="715" style="stroke:rgb(99,99,99);stroke-width:2"/><text x="100" y="715"  font-size="13" text-anchor="left" >
              [1] http://ec.europa.eu/ten/transport/re...
            </text><line x1="445" y1="750" x2="455" y2="750" style="stroke:rgb(99,99,99);stroke-width:2"/><text x="470" y="750"  font-size="13" text-anchor="left" >
              [1] http://ec.europa.eu/ten/transport/re...
            </text>

</svg>