<svg version="1.1" baseProfile="full" xmlns="http://www.w3.org/2000/svg">

<line x1="350" y1="50" x2="350" y2="400" style="stroke:rgb(99,99,99);stroke-width:2"/>
<line x1="450" y1="50" x2="450" y2="400" style="stroke:rgb(99,99,99);stroke-width:2"/>
<line x1="350" y1="50" x2="450" y2="50" style="stroke:rgb(99,99,99);stroke-width:0.3"/><line x1="345" y1="50" x2="355" y2="50" style="stroke:rgb(99,99,99);stroke-width:2"/><text x="100" y="50"  font-size="13" text-anchor="left" >
              Bruxelles , le 15 juillet 2004 ....
            </text><line x1="445" y1="50" x2="455" y2="50" style="stroke:rgb(99,99,99);stroke-width:2"/><text x="470" y="50"  font-size="13" text-anchor="left" >
              Βρυξέλλες , 15 Ιουλίου 2004 ....
            </text><line x1="350" y1="85" x2="450" y2="85" style="stroke:rgb(99,99,99);stroke-width:0.3"/><line x1="350" y1="85" x2="450" y2="120" style="stroke:rgb(99,99,99);stroke-width:0.3"/><line x1="350" y1="120" x2="450" y2="85" style="stroke:rgb(99,99,99);stroke-width:0.3"/><line x1="350" y1="120" x2="450" y2="120" style="stroke:rgb(99,99,99);stroke-width:0.3"/><line x1="345" y1="85" x2="355" y2="85" style="stroke:rgb(99,99,99);stroke-width:2"/><text x="100" y="85"  font-size="13" text-anchor="left" >
              De nouveaux financements pour les réseau...
            </text><line x1="345" y1="120" x2="355" y2="120" style="stroke:rgb(99,99,99);stroke-width:2"/><text x="100" y="120"  font-size="13" text-anchor="left" >
              La Commission propose plus de 22 milliar...
            </text><line x1="445" y1="85" x2="455" y2="85" style="stroke:rgb(99,99,99);stroke-width:2"/><text x="470" y="85"  font-size="13" text-anchor="left" >
              Νέοι χρηματοδοτικοί πόροι για τα διευρωπ...
            </text><line x1="445" y1="120" x2="455" y2="120" style="stroke:rgb(99,99,99);stroke-width:2"/><text x="470" y="120"  font-size="13" text-anchor="left" >
              Η Επιτροπή προτείνει να διατεθεί επί χρο...
            </text><line x1="350" y1="155" x2="450" y2="155" style="stroke:rgb(99,99,99);stroke-width:0.3"/><line x1="345" y1="155" x2="355" y2="155" style="stroke:rgb(99,99,99);stroke-width:2"/><text x="100" y="155"  font-size="13" text-anchor="left" >
              Dans le cadre des prochaines perspective...
            </text><line x1="445" y1="155" x2="455" y2="155" style="stroke:rgb(99,99,99);stroke-width:2"/><text x="470" y="155"  font-size="13" text-anchor="left" >
              Στο πλαίσιο των δημοσιονομικών προοπτικώ...
            </text><line x1="350" y1="190" x2="450" y2="190" style="stroke:rgb(99,99,99);stroke-width:0.3"/><line x1="350" y1="225" x2="450" y2="190" style="stroke:rgb(99,99,99);stroke-width:0.3"/><line x1="345" y1="190" x2="355" y2="190" style="stroke:rgb(99,99,99);stroke-width:2"/><text x="100" y="190"  font-size="13" text-anchor="left" >
              Dans les transports , le règlement propo...
            </text><line x1="345" y1="225" x2="355" y2="225" style="stroke:rgb(99,99,99);stroke-width:2"/><text x="100" y="225"  font-size="13" text-anchor="left" >
              Dans l’énergie , le règlement prévoit un...
            </text><line x1="445" y1="190" x2="455" y2="190" style="stroke:rgb(99,99,99);stroke-width:2"/><text x="470" y="190"  font-size="13" text-anchor="left" >
              Σύμφωνα με την πρόταση κανονισμού , για ...
            </text><line x1="350" y1="260" x2="450" y2="225" style="stroke:rgb(99,99,99);stroke-width:0.3"/><line x1="350" y1="260" x2="450" y2="260" style="stroke:rgb(99,99,99);stroke-width:0.3"/><line x1="345" y1="260" x2="355" y2="260" style="stroke:rgb(99,99,99);stroke-width:2"/><text x="100" y="260"  font-size="13" text-anchor="left" >
              La Commission a présenté deux autres règ...
            </text><line x1="445" y1="225" x2="455" y2="225" style="stroke:rgb(99,99,99);stroke-width:2"/><text x="470" y="225"  font-size="13" text-anchor="left" >
              Σύμφωνα με τα στοιχεία του κανονισμού , ...
            </text><line x1="445" y1="260" x2="455" y2="260" style="stroke:rgb(99,99,99);stroke-width:2"/><text x="470" y="260"  font-size="13" text-anchor="left" >
              Η Επιτροπή υπέβαλε επίσης δύο άλλους συμ...
            </text><line x1="350" y1="295" x2="450" y2="295" style="stroke:rgb(99,99,99);stroke-width:0.3"/><line x1="345" y1="295" x2="355" y2="295" style="stroke:rgb(99,99,99);stroke-width:2"/><text x="100" y="295"  font-size="13" text-anchor="left" >
              Pour développer le programme existant " ...
            </text><line x1="445" y1="295" x2="455" y2="295" style="stroke:rgb(99,99,99);stroke-width:2"/><text x="470" y="295"  font-size="13" text-anchor="left" >
              Με στόχο την ανάπτυξη του υφιστάμενου πρ...
            </text><line x1="350" y1="330" x2="450" y2="330" style="stroke:rgb(99,99,99);stroke-width:0.3"/><line x1="345" y1="330" x2="355" y2="330" style="stroke:rgb(99,99,99);stroke-width:2"/><text x="100" y="330"  font-size="13" text-anchor="left" >
              ....
            </text><line x1="445" y1="330" x2="455" y2="330" style="stroke:rgb(99,99,99);stroke-width:2"/><text x="470" y="330"  font-size="13" text-anchor="left" >
              ....
            </text><line x1="350" y1="365" x2="450" y2="365" style="stroke:rgb(99,99,99);stroke-width:0.3"/><line x1="345" y1="365" x2="355" y2="365" style="stroke:rgb(99,99,99);stroke-width:2"/><text x="100" y="365"  font-size="13" text-anchor="left" >
              [1] http://ec.europa.eu/ten/transport/re...
            </text><line x1="445" y1="365" x2="455" y2="365" style="stroke:rgb(99,99,99);stroke-width:2"/><text x="470" y="365"  font-size="13" text-anchor="left" >
              [1] http://ec.europa.eu/ten/transport/re...
            </text>

</svg>